<svg width="17" height="16" viewBox="0 0 17 16" fill="none" xmlns="http://www.w3.org/2000/svg">
<g clip-path="url(#clip0_178_1173)">
<path d="M11.1666 14V12.6667C11.1666 11.9594 10.8856 11.2811 10.3855 10.781C9.88544 10.281 9.20716 10 8.49992 10H4.49992C3.79267 10 3.1144 10.281 2.6143 10.781C2.1142 11.2811 1.83325 11.9594 1.83325 12.6667V14" stroke="white" stroke-width="2" stroke-linecap="round" stroke-linejoin="round"/>
<path d="M6.49992 7.33333C7.97268 7.33333 9.16659 6.13943 9.16659 4.66667C9.16659 3.19391 7.97268 2 6.49992 2C5.02716 2 3.83325 3.19391 3.83325 4.66667C3.83325 6.13943 5.02716 7.33333 6.49992 7.33333Z" stroke="white" stroke-width="2" stroke-linecap="round" stroke-linejoin="round"/>
<path d="M13.1667 5.33325V9.33325" stroke="white" stroke-width="2" stroke-linecap="round" stroke-linejoin="round"/>
<path d="M15.1667 7.33325H11.1667" stroke="white" stroke-width="2" stroke-linecap="round" stroke-linejoin="round"/>
</g>
<defs>
<clipPath id="clip0_178_1173">
<rect width="16" height="16" fill="white" transform="translate(0.5)"/>
</clipPath>
</defs>
</svg>
