<svg
    width="58"
    height="97"
    viewBox="0 0 58 97"
    fill="none"
    xmlns="http://www.w3.org/2000/svg"
    className="ml-auto"
>
    <path
    d="M40.0999 39.0162C45.9399 35.3455 49.7999 28.8619 49.7999 21.4606C49.7999 10.0096 40.4799 0.713135 29 0.713135C17.5199 0.713135 8.19995 10.0096 8.19995 21.4606C8.19995 28.8619 12.08 35.3455 17.9 39.0162H16.2C12.66 39.0162 9.79995 41.8689 9.79995 45.4C9.79995 48.6917 12.3 51.3849 15.5 51.7439L13 74.1273H44.9999L42.5 51.7439C45.6999 51.3849 48.1999 48.6917 48.1999 45.4C48.1999 41.8689 45.3399 39.0162 41.7999 39.0162H40.0999ZM1.51995 88.7702C0.679951 89.6081 0.199951 90.7652 0.199951 91.9621C0.199951 94.4558 2.21995 96.4707 4.71995 96.4707H53.2799C55.7799 96.4707 57.7999 94.4558 57.7999 91.9621C57.7999 90.7652 57.3199 89.6081 56.4799 88.7702L48.1999 80.5111H9.79995L1.51995 88.7702Z"
    fill="black"
    />
</svg>