<svg width="16" height="14" viewBox="0 0 16 14" fill="none" xmlns="http://www.w3.org/2000/svg">
<path d="M10.6666 13V11.6667C10.6666 10.9594 10.3856 10.2811 9.88554 9.78105C9.38544 9.28095 8.70716 9 7.99992 9H3.99992C3.29267 9 2.6144 9.28095 2.1143 9.78105C1.6142 10.2811 1.33325 10.9594 1.33325 11.6667V13" stroke="white" stroke-width="2" stroke-linecap="round" stroke-linejoin="round"/>
<path d="M5.99992 6.33333C7.47268 6.33333 8.66659 5.13943 8.66659 3.66667C8.66659 2.19391 7.47268 1 5.99992 1C4.52716 1 3.33325 2.19391 3.33325 3.66667C3.33325 5.13943 4.52716 6.33333 5.99992 6.33333Z" stroke="white" stroke-width="2" stroke-linecap="round" stroke-linejoin="round"/>
<path d="M14.6667 13V11.6667C14.6663 11.0758 14.4697 10.5019 14.1077 10.0349C13.7457 9.56791 13.2388 9.23438 12.6667 9.08667" stroke="white" stroke-width="2" stroke-linecap="round" stroke-linejoin="round"/>
<path d="M10.6667 1.08667C11.2404 1.23354 11.7488 1.56714 12.1118 2.03488C12.4749 2.50262 12.672 3.07789 12.672 3.67C12.672 4.26212 12.4749 4.83739 12.1118 5.30513C11.7488 5.77287 11.2404 6.10647 10.6667 6.25334" stroke="white" stroke-width="2" stroke-linecap="round" stroke-linejoin="round"/>
</svg>
