<svg width="24" height="24" viewBox="0 0 24 24" fill="none" xmlns="http://www.w3.org/2000/svg">
<path d="M18.4832 16.767C17.1164 17.0952 15.6895 17.0793 14.3303 16.7207C12.9712 16.3621 11.7221 15.6721 10.6951 14.7123C9.66804 13.7526 8.89506 12.5531 8.44535 11.2213C7.99564 9.88945 7.88325 8.4669 8.11824 7.08099C8.0825 7.11551 8.04477 7.1479 8.00524 7.17799C7.72523 7.39099 7.37524 7.46999 6.67524 7.62799L6.04024 7.77199C3.58024 8.32899 2.35024 8.60699 2.05723 9.54799C1.76523 10.488 2.60324 11.469 4.28024 13.43L4.71424 13.937C5.19024 14.494 5.42923 14.773 5.53623 15.117C5.64323 15.462 5.60723 15.834 5.53523 16.577L5.46923 17.254C5.21623 19.871 5.08924 21.179 5.85524 21.76C6.62123 22.342 7.77323 21.812 10.0752 20.751L10.6722 20.477C11.3262 20.175 11.6532 20.025 12.0002 20.025C12.3472 20.025 12.6742 20.175 13.3292 20.477L13.9242 20.751C16.2272 21.811 17.3792 22.341 18.1442 21.761C18.9112 21.179 18.7842 19.871 18.5312 17.254L18.4832 16.767Z" fill="#FFC700"/>
<path d="M9.15319 5.408L8.82519 5.996C8.46519 6.642 8.28519 6.965 8.00519 7.178C8.04519 7.148 8.08219 7.116 8.11819 7.081C7.88314 8.46701 7.99553 9.88967 8.44528 11.2216C8.89504 12.5535 9.66812 13.7531 10.6953 14.7128C11.7225 15.6726 12.9716 16.3627 14.331 16.7212C15.6903 17.0797 17.1173 17.0954 18.4842 16.767L18.4642 16.577C18.3932 15.834 18.3572 15.462 18.4642 15.117C18.5712 14.773 18.8092 14.494 19.2862 13.937L19.7202 13.43C21.3972 11.47 22.2352 10.489 21.9422 9.548C21.6502 8.607 20.4202 8.328 17.9602 7.772L17.3242 7.628C16.6252 7.47 16.2752 7.391 15.9942 7.178C15.7142 6.965 15.5342 6.642 15.1742 5.996L14.8472 5.408C13.5802 3.136 12.9472 2 12.0002 2C11.0532 2 10.4202 3.136 9.15319 5.408Z" fill="#FFDC60"/>
</svg>
