<svg viewBox="0 0 1318 1080" fill="none" xmlns="http://www.w3.org/2000/svg" className="  min-h-screen w-screen ">
      <g opacity="0.05">
        <path d="M314.49 867.684C128.76 1003.38 0.246521 1080 0.246521 1080L264.316 1066.3C264.316 1066.3 313.608 1014.51 386.229 938.313C373.464 927.612 361.581 916.482 350.58 905.781C338.697 893.793 326.373 880.953 314.49 867.684Z" fill="white"/>
        <path d="M1305.55 0H1317.87C1317.87 0 1321.83 497.408 1168.67 800.902H859.71C841.224 800.902 825.822 815.455 825.822 833.863V1072.72C700.389 1091.13 581.556 1043.18 487.813 978.118V833.863C487.813 815.884 472.408 800.902 453.925 800.902H307.805C242.228 708.868 194.695 593.72 216.261 471.722H453.484C471.967 471.722 487.372 456.74 487.372 438.761V148.537C770.808 10.2735 1224.57 0.42806 1305.55 0ZM521.263 472.151C502.777 472.151 487.372 487.133 487.372 505.112V768.37C487.372 786.349 502.336 801.331 521.263 801.331H791.931C810.417 801.331 825.822 786.349 825.822 768.37V505.112C825.822 487.133 810.417 472.151 791.931 472.151H521.263ZM859.71 142.972C841.224 142.972 825.822 157.954 825.822 175.933V439.19C825.822 457.169 841.224 472.151 859.71 472.151H1129.94C1148.43 472.151 1163.83 457.169 1163.83 439.19V175.933C1163.83 157.954 1148.87 142.972 1129.94 142.972H859.71Z" fill="white"/>
       </g>
    </svg>
