<svg width="1480" height="296" viewBox="0 0 1480 296" fill="none" xmlns="http://www.w3.org/2000/svg">
<g clip-path="url(#clip0_6_33)">
<mask id="mask0_6_33" style="mask-type:luminance" maskUnits="userSpaceOnUse" x="0" y="0" width="352" height="296">
<path d="M351.5 0H0V296H351.5V0Z" fill="white"/>
</mask>
<g mask="url(#mask0_6_33)">
<path d="M86.1261 237.81C35.2224 275 0 296.001 0 296.001L72.3747 292.247C72.3747 292.247 85.8844 278.051 105.788 257.168C102.289 254.235 99.0326 251.185 96.0175 248.252C92.7607 244.966 89.383 241.447 86.1261 237.81Z" fill="#275396"/>
<path d="M348.122 0H351.5C351.5 0 352.585 136.327 310.608 219.507H225.929C220.863 219.507 216.642 223.496 216.642 228.541V294.005C182.264 299.05 149.695 285.911 124.002 268.077V228.541C124.002 223.613 119.78 219.507 114.714 219.507H74.6663C56.6933 194.283 43.6658 162.724 49.5764 129.287H114.593C119.659 129.287 123.881 125.181 123.881 120.253V40.7103C201.564 2.81569 325.927 0.11732 348.122 0ZM133.17 129.405C128.103 129.405 123.881 133.511 123.881 138.438V210.591C123.881 215.518 127.982 219.625 133.17 219.625H207.353C212.42 219.625 216.642 215.518 216.642 210.591V138.438C216.642 133.511 212.42 129.405 207.353 129.405H133.17ZM225.929 39.1851C220.863 39.1851 216.642 43.2913 216.642 48.2188V120.371C216.642 125.298 220.863 129.405 225.929 129.405H299.993C305.059 129.405 309.281 125.298 309.281 120.371V48.2188C309.281 43.2913 305.18 39.1851 299.993 39.1851H225.929Z" fill="#275396"/>
</g>
<path d="M1036.77 152.151H1084.05V239.553H1069.87L1062.77 226.734C1058.04 232.561 1053.32 236.057 1049.77 238.388C1045.04 240.719 1040.32 241.884 1033.22 241.884C1021.41 241.884 1011.95 238.388 1003.68 230.23C996.583 222.073 993.039 211.585 993.039 197.601V109.033C993.039 96.2148 996.583 85.7265 1004.85 77.5689C1011.95 69.4114 1023.77 64.75 1037.95 64.75C1052.13 64.75 1063.96 69.4114 1071.04 77.5689C1079.32 86.8916 1082.87 97.3799 1082.87 111.364V121.853H1054.5C1054.5 109.033 1053.32 100.876 1050.96 96.2148C1048.59 91.5528 1043.86 89.2226 1037.95 89.2226C1034.4 89.2226 1030.86 90.3877 1028.49 93.8838C1026.13 96.2148 1024.95 102.041 1024.95 109.033V197.601C1024.95 203.427 1026.13 208.089 1028.49 210.419C1030.86 213.915 1034.4 215.081 1039.13 215.081C1045.04 215.081 1049.77 212.75 1052.13 209.254C1054.5 205.758 1055.68 199.931 1055.68 190.608V174.293H1036.77V152.151Z" fill="#275396"/>
<path d="M470.62 125.348V112.529C470.62 105.536 469.438 100.875 467.074 97.3791C464.71 93.883 461.165 91.552 456.437 91.552C450.527 91.552 446.981 92.7179 444.618 96.214C441.071 98.5442 439.89 103.206 439.89 110.198V197.6C439.89 204.592 441.071 209.253 443.435 212.749C445.799 216.245 450.527 217.41 455.255 217.41C461.165 217.41 464.71 216.245 467.074 212.749C469.438 210.418 470.62 205.757 470.62 199.93V178.954H500.168V198.765C500.168 211.584 496.623 222.072 488.349 230.23C480.076 238.387 469.438 243.048 455.255 243.048C439.89 243.048 429.252 238.387 420.979 230.23C412.705 222.072 409.159 211.584 409.159 198.765V110.198C409.159 97.3791 412.705 86.8908 420.979 78.7334C429.252 70.5759 439.89 65.9144 455.255 65.9144C469.438 65.9144 480.076 70.5759 488.349 78.7334C495.441 88.0559 500.168 98.5442 500.168 112.529V125.348H470.62Z" fill="#275396"/>
<path d="M524.991 239.554V67.0812H554.54V137.003H586.452V67.0812H617.183V239.554H587.635V162.641H555.722V239.554H524.991Z" fill="#275396"/>
<path d="M639.636 67.0812V238.389H723.555V212.75H669.185V162.641H708.189V137.003H669.185V92.7187H720.008V67.0812H639.636Z" fill="#275396"/>
<path d="M796.835 110.2C796.835 103.208 794.471 98.5458 790.925 95.0497C787.379 91.5536 783.834 90.3885 780.287 90.3885C770.832 90.3885 764.922 96.2156 764.922 107.869C764.922 113.696 767.286 118.357 770.832 124.183C773.083 127.143 776.763 130.572 781.267 134.769C783.858 137.183 786.723 139.852 789.743 142.83C795.653 147.491 800.381 152.152 803.926 155.648C807.472 159.144 811.018 162.64 814.564 167.302C818.11 171.964 820.473 176.625 822.839 182.452C825.199 188.278 826.383 194.105 826.383 199.932C826.383 213.916 821.656 224.404 813.382 232.562C805.109 240.72 793.289 244.216 779.106 244.216C766.104 244.216 755.467 239.554 747.193 230.231C738.92 220.908 735.373 209.255 734.192 196.435L762.559 192.94C763.74 201.097 764.922 208.09 768.468 212.751C772.014 217.412 775.56 219.743 780.287 219.743C786.197 219.743 789.743 218.578 793.289 216.247C796.835 213.916 798.017 209.255 798.017 204.594C798.017 197.601 795.653 191.774 792.107 185.948C791.021 184.877 789.872 183.683 788.632 182.394C784.477 178.074 779.293 172.685 772.014 167.302C769.422 165.258 767.059 163.214 764.922 161.367C762.186 159.001 759.821 156.957 757.831 155.648C754.285 152.152 750.739 148.656 747.193 143.995C743.647 139.334 741.284 134.672 738.92 130.011C736.556 124.184 736.556 118.357 736.556 112.53C736.556 98.5458 740.101 88.0575 748.375 81.0658C756.648 74.0737 768.468 69.4122 782.651 69.4122C794.471 69.4122 803.926 72.9083 811.018 81.0658C818.11 89.2234 822.839 98.5458 824.023 111.365L796.835 110.2Z" fill="#275396"/>
<path d="M892.571 95.0497C896.123 98.5458 898.483 103.208 898.483 110.2L925.666 111.365C924.49 98.5458 919.762 89.2234 912.667 81.0658C905.579 72.9083 896.124 69.4122 884.3 69.4122C870.117 69.4122 858.301 74.0737 850.021 81.0658C841.75 88.0575 838.206 98.5458 838.206 112.53C838.206 118.357 838.206 124.184 840.566 130.011C842.934 134.672 845.302 139.334 848.846 143.995C852.389 148.656 855.933 152.152 859.477 155.648C861.475 156.956 863.835 159 866.573 161.367C868.711 163.214 871.07 165.258 873.66 167.302C880.945 172.685 886.125 178.068 890.277 182.388C891.519 183.679 892.67 184.875 893.755 185.948C897.299 191.774 899.667 197.601 899.667 204.594C899.667 209.255 898.483 213.916 894.939 216.247C891.396 218.578 887.844 219.743 881.94 219.743C877.212 219.743 873.66 217.412 870.117 212.751C866.573 208.09 865.389 201.097 864.205 192.94L835.838 196.435C837.022 209.255 840.566 220.908 848.846 230.231C857.117 239.554 867.757 244.216 880.756 244.216C894.94 244.216 906.755 240.72 915.035 232.562C923.306 224.404 928.034 213.916 928.034 199.932C928.034 194.105 926.85 188.278 924.49 182.452C922.122 176.625 919.762 171.964 916.21 167.302C912.667 162.64 909.123 159.144 905.579 155.648C902.027 152.152 897.299 147.491 891.396 142.83C888.37 139.852 885.509 137.184 882.919 134.77C878.413 130.574 874.737 127.143 872.485 124.183C868.933 118.357 866.573 113.696 866.573 107.869C866.573 96.2156 872.485 90.3885 881.94 90.3885C885.484 90.3885 889.028 91.5536 892.571 95.0497Z" fill="#275396"/>
<path fill-rule="evenodd" clip-rule="evenodd" d="M1107.69 240.719H1138.42V168.467H1153.78L1176.24 238.389H1206.97L1180.97 160.31C1186.88 157.979 1192.79 153.317 1196.33 146.325C1199.88 139.333 1202.25 130.011 1202.25 117.191C1202.25 99.7109 1197.52 86.8925 1189.24 78.7347C1179.78 70.5772 1167.97 67.0812 1150.24 67.0812H1107.69V240.719ZM1147.87 145.16H1137.23V91.5536H1147.87C1156.14 91.5536 1162.05 93.8846 1165.6 97.3807C1169.15 100.877 1170.33 107.868 1170.33 118.356C1170.33 128.845 1169.15 135.837 1165.6 139.333C1162.05 142.829 1156.14 145.16 1147.87 145.16Z" fill="#275396"/>
<path fill-rule="evenodd" clip-rule="evenodd" d="M1222.34 109.033C1222.34 96.2148 1225.88 85.7265 1234.16 77.5689C1242.43 69.4114 1253.07 64.75 1268.43 64.75C1283.8 64.75 1294.43 69.4114 1302.71 77.5689C1310.98 85.7265 1314.53 96.2148 1314.53 109.033V197.601C1314.53 210.419 1310.98 220.907 1302.71 229.065C1294.43 237.223 1283.8 241.884 1268.43 241.884C1253.07 241.884 1242.43 237.223 1234.16 229.065C1225.88 220.907 1222.34 210.419 1222.34 197.601V109.033ZM1253.07 197.601C1253.07 204.593 1254.25 209.254 1256.61 212.75C1258.98 216.246 1263.71 217.411 1268.43 217.411C1274.35 217.411 1279.07 216.246 1281.43 212.75C1283.8 209.254 1284.98 204.593 1284.98 197.601V110.199C1284.98 103.207 1283.8 98.545 1281.43 96.2148C1279.07 92.7187 1275.52 91.5528 1268.43 91.5528C1262.52 91.5528 1258.98 92.7187 1256.61 96.2148C1254.25 99.7109 1253.07 104.372 1253.07 110.199V197.601Z" fill="#275396"/>
<path d="M1415 67.0812H1390.17L1372.45 176.625L1353.53 67.0812H1325.17L1358.26 239.554H1383.08L1403.17 125.349L1424.45 239.554H1449.27L1480 67.0812H1451.63L1435.09 176.625L1415 67.0812Z" fill="#275396"/>
</g>
<defs>
<clipPath id="clip0_6_33">
<rect width="1480" height="296" fill="white"/>
</clipPath>
</defs>
</svg>
