<svg width="352" height="296" viewBox="0 0 352 296" fill="none" xmlns="http://www.w3.org/2000/svg">
<path d="M86.1261 237.81C35.2224 275 0 296.001 0 296.001L72.3747 292.247C72.3747 292.247 85.8844 278.051 105.788 257.168C102.289 254.235 99.0326 251.185 96.0175 248.252C92.7607 244.966 89.383 241.447 86.1261 237.81Z" fill="#275396"/>
<path d="M348.122 0H351.5C351.5 0 352.585 136.327 310.608 219.507H225.929C220.863 219.507 216.642 223.496 216.642 228.541V294.005C182.264 299.05 149.695 285.911 124.002 268.077V228.541C124.002 223.613 119.78 219.507 114.714 219.507H74.6663C56.6933 194.283 43.6658 162.724 49.5764 129.287H114.593C119.659 129.287 123.881 125.181 123.881 120.253V40.7103C201.564 2.81569 325.927 0.11732 348.122 0ZM133.17 129.405C128.103 129.405 123.881 133.511 123.881 138.438V210.591C123.881 215.518 127.982 219.625 133.17 219.625H207.353C212.42 219.625 216.642 215.518 216.642 210.591V138.438C216.642 133.511 212.42 129.405 207.353 129.405H133.17ZM225.929 39.1851C220.863 39.1851 216.642 43.2913 216.642 48.2188V120.371C216.642 125.298 220.863 129.405 225.929 129.405H299.993C305.059 129.405 309.281 125.298 309.281 120.371V48.2188C309.281 43.2913 305.18 39.1851 299.993 39.1851H225.929Z" fill="#275396"/>
</svg>
